<?xml version="1.0" encoding="UTF-8"?>
<svg focusable="false" viewBox="0 0 150 65" xmlns="http://www.w3.org/2000/svg">
<rect width="150" height="65" fill="none"/>
<polyline points="71.68 60.22 71.68 53.87 143.01 23.2 143.01 29.58" fill="#c6c6c6"/>
<polygon points="24.03 30.81 24.03 37.16 71.68 60.22 71.68 53.87" fill="#dadada"/>
<polygon points="95.39 0.2 143.01 23.2 71.68 53.87 24.03 30.81" fill="#ededed"/>
<polygon points="73.93 52.89 26.31 29.83 25.94 29.99 73.57 53.05" fill="#c6c6c6"/>
<polygon points="141.13 24.01 93.56 0.98 93.2 1.13 140.76 24.16" fill="#dadada"/>
<polygon points="73.14 63.45 141.72 33.91 142.07 34.77 73.49 64.31" fill="#e30613"/>
<polygon points="138.84 33.38 140.41 34.93 140.4 37.16 144 33.39" fill="#e30613"/>
<polygon points="25.75 43.04 26.14 42.2 70.58 63.89 70.19 64.73" fill="#e30613"/>
<polygon points="26.16 44.92 26.25 42.7 27.89 41.21 22.73 40.98" fill="#e30613"/>
<rect x="19.49" y="33.92" width="1.03" height="3.25" fill="#e30613"/>
<polygon points="17.95 36 20.01 35.1 22.07 36 20.01 31" fill="#e30613"/>
<path d="M6.73,25.46a.76.76,0,0,1-.56.22H2.24a.74.74,0,0,1-.57-.22.77.77,0,0,1-.22-.57,4.13,4.13,0,0,1,.1-.9,3.26,3.26,0,0,1,.29-.74,4,4,0,0,1,.43-.62,5.39,5.39,0,0,1,.54-.53,7.73,7.73,0,0,1,.85-.66,9.48,9.48,0,0,0,.81-.6,3.57,3.57,0,0,0,.6-.64,1.26,1.26,0,0,0,.23-.76,1.39,1.39,0,0,0-.06-.4.89.89,0,0,0-.19-.36,1.08,1.08,0,0,0-.36-.26,1.29,1.29,0,0,0-.51-.09,1.91,1.91,0,0,0-.62.08,2,2,0,0,0-.45.19,4.19,4.19,0,0,0-.43.27.6.6,0,0,1-.4.13.77.77,0,0,1-.78-.78.87.87,0,0,1,.06-.32.69.69,0,0,1,.23-.29,3.8,3.8,0,0,1,2.45-.78,3,3,0,0,1,1.26.24,2.42,2.42,0,0,1,.84.62,2.49,2.49,0,0,1,.47.84,3,3,0,0,1,.15.91,2.53,2.53,0,0,1-.23,1.11,3,3,0,0,1-.58.83,5.77,5.77,0,0,1-.79.68c-.29.21-.58.41-.85.62a6.73,6.73,0,0,0-.75.65,2.11,2.11,0,0,0-.51.78H6.17a.79.79,0,0,1,.79.78A.79.79,0,0,1,6.73,25.46Z"/>
<path d="M10,25.51a.93.93,0,0,1-.68.28,1,1,0,0,1-1-1,.93.93,0,0,1,.28-.68,1,1,0,0,1,.68-.28,1,1,0,0,1,1,1A1,1,0,0,1,10,25.51Z"/>
<path d="M16.81,24a2.55,2.55,0,0,1-.52.92,2.74,2.74,0,0,1-.9.65,3.21,3.21,0,0,1-1.3.24,4.78,4.78,0,0,1-1-.11,3,3,0,0,1-.9-.38.94.94,0,0,1-.33-.33.85.85,0,0,1-.09-.38A.81.81,0,0,1,12,24a.65.65,0,0,1,.53-.24.83.83,0,0,1,.22,0,.86.86,0,0,1,.24.11,2.89,2.89,0,0,0,.45.24,1.54,1.54,0,0,0,.7.15,1.26,1.26,0,0,0,.57-.12,1,1,0,0,0,.39-.3,1.38,1.38,0,0,0,.21-.44,2.38,2.38,0,0,0,.06-.55,1.41,1.41,0,0,0-.3-1,1,1,0,0,0-.73-.31,1.28,1.28,0,0,0-.52.09,2.77,2.77,0,0,0-.37.22l-.31.23a.58.58,0,0,1-.33.09.81.81,0,0,1-.57-.22.68.68,0,0,1-.21-.6l.12-3.7a.81.81,0,0,1,.25-.55.8.8,0,0,1,.54-.21h2.9a.79.79,0,0,1,.79.79.73.73,0,0,1-.23.55.79.79,0,0,1-.56.23H13.58l-.06,1.85a2.39,2.39,0,0,1,.92-.18,2.44,2.44,0,0,1,1.85.71,2.81,2.81,0,0,1,.69,2A3.46,3.46,0,0,1,16.81,24Z"/>
<path d="M22.39,20.91a.62.62,0,0,1-.48,0,1.56,1.56,0,0,0-.41-.15,1.75,1.75,0,0,0-.5-.06.93.93,0,0,0-.78.35,1.55,1.55,0,0,0-.28,1v1.11a1.68,1.68,0,0,0,.25,1,.84.84,0,0,0,.75.36,3.75,3.75,0,0,0,.45,0,1.84,1.84,0,0,0,.52-.17.57.57,0,0,1,.48,0,.53.53,0,0,1,.32.36.6.6,0,0,1,0,.51.79.79,0,0,1-.31.32,2.34,2.34,0,0,1-.78.27,5.14,5.14,0,0,1-.78.07,2.76,2.76,0,0,1-1.14-.21,1.89,1.89,0,0,1-.78-.57,2.26,2.26,0,0,1-.44-.86A3.78,3.78,0,0,1,18.32,23v-.84a3.55,3.55,0,0,1,.17-1.09,2.58,2.58,0,0,1,.47-.9,2.18,2.18,0,0,1,.79-.61,2.65,2.65,0,0,1,1.09-.22,5.77,5.77,0,0,1,.8.07,2.35,2.35,0,0,1,.78.28.92.92,0,0,1,.31.34.59.59,0,0,1,0,.49A.63.63,0,0,1,22.39,20.91Z"/>
<path d="M32.3,25.52a.78.78,0,0,1-.57.24.77.77,0,0,1-.58-.24.75.75,0,0,1-.24-.57V21.83a2,2,0,0,0,0-.35.68.68,0,0,0-.12-.3.65.65,0,0,0-.25-.21,1,1,0,0,0-.43-.07,1.21,1.21,0,0,0-.58.13,1.26,1.26,0,0,0-.4.36.49.49,0,0,0,0,.12V25a.75.75,0,0,1-.24.57.78.78,0,0,1-.58.24.82.82,0,0,1-.8-.81V21.83a2,2,0,0,0,0-.35.83.83,0,0,0-.13-.3.65.65,0,0,0-.25-.21,1,1,0,0,0-.43-.07,1.28,1.28,0,0,0-.56.12,1.36,1.36,0,0,0-.41.34V25a.8.8,0,0,1-.8.81.79.79,0,0,1-.59-.24.78.78,0,0,1-.23-.57V21.27a.65.65,0,0,0-.11-.43l-.25-.26a.46.46,0,0,1-.16-.18.61.61,0,0,1-.06-.28.58.58,0,0,1,.23-.51,1,1,0,0,1,.58-.15,1.23,1.23,0,0,1,.75.25,1.09,1.09,0,0,1,.28.29,2.15,2.15,0,0,1,.76-.46,2.87,2.87,0,0,1,1-.17,2.32,2.32,0,0,1,1,.18,1.62,1.62,0,0,1,.62.51,2.16,2.16,0,0,1,.77-.51,2.83,2.83,0,0,1,1.06-.18,2.66,2.66,0,0,1,.95.16,1.5,1.5,0,0,1,.61.46,1.8,1.8,0,0,1,.34.71,3.84,3.84,0,0,1,.1.93V25A.78.78,0,0,1,32.3,25.52Z"/>
<path d="M21.26,62.65a.78.78,0,0,1-.57.23H16.77a.82.82,0,0,1-.58-.22.8.8,0,0,1-.21-.57,3.59,3.59,0,0,1,.1-.9,2.93,2.93,0,0,1,.29-.75,3.81,3.81,0,0,1,.43-.62,6.62,6.62,0,0,1,.53-.53,8.93,8.93,0,0,1,.86-.66q.43-.3.81-.6a3.26,3.26,0,0,0,.6-.64,1.3,1.3,0,0,0,.23-.75,1.45,1.45,0,0,0-.06-.41.91.91,0,0,0-.2-.36,1,1,0,0,0-.35-.25,1.21,1.21,0,0,0-.52-.1,2,2,0,0,0-1.07.28,2.55,2.55,0,0,0-.42.27.68.68,0,0,1-.4.12.77.77,0,0,1-.55-.22.72.72,0,0,1-.23-.56.68.68,0,0,1,.28-.61A3.84,3.84,0,0,1,18.76,54a3,3,0,0,1,1.26.24,2.36,2.36,0,0,1,.84.62,2.16,2.16,0,0,1,.47.85,2.69,2.69,0,0,1,.16.91,2.51,2.51,0,0,1-.23,1.1,3.49,3.49,0,0,1-.58.84,5.79,5.79,0,0,1-.8.67l-.84.62a8,8,0,0,0-.75.65,2.15,2.15,0,0,0-.51.79h2.91a.77.77,0,0,1,.57.22.79.79,0,0,1,.23.56A.77.77,0,0,1,21.26,62.65Z"/>
<path d="M28,61.17a2.47,2.47,0,0,1-.52.92,2.43,2.43,0,0,1-.9.65,3.21,3.21,0,0,1-1.3.25,4.22,4.22,0,0,1-1-.12,2.74,2.74,0,0,1-.9-.38.87.87,0,0,1-.33-.33.84.84,0,0,1-.09-.37.83.83,0,0,1,.21-.56.68.68,0,0,1,.53-.24.83.83,0,0,1,.22,0,.68.68,0,0,1,.24.12l.45.24a1.71,1.71,0,0,0,.7.14,1.46,1.46,0,0,0,.58-.11,1.15,1.15,0,0,0,.38-.3,1.1,1.1,0,0,0,.21-.45,2.35,2.35,0,0,0,.07-.54,1.46,1.46,0,0,0-.31-1,1,1,0,0,0-.73-.3,1.28,1.28,0,0,0-.52.09,1.65,1.65,0,0,0-.36.22l-.32.22a.58.58,0,0,1-.33.09.77.77,0,0,1-.57-.22.68.68,0,0,1-.21-.6l.12-3.69a.74.74,0,0,1,.26-.55.73.73,0,0,1,.53-.22h2.9a.8.8,0,0,1,.8.79.72.72,0,0,1-.24.55.73.73,0,0,1-.56.23h-2.2l-.06,1.85a2.31,2.31,0,0,1,.91-.18,2.48,2.48,0,0,1,1.85.71,2.83,2.83,0,0,1,.69,2A3.12,3.12,0,0,1,28,61.17Z"/>
<path d="M33.53,58.1a.58.58,0,0,1-.48,0,3.25,3.25,0,0,0-.4-.15,1.91,1.91,0,0,0-.51,0,.94.94,0,0,0-.78.34,1.59,1.59,0,0,0-.28,1v1.1a1.72,1.72,0,0,0,.25,1,.88.88,0,0,0,.75.35,2.28,2.28,0,0,0,.45,0,2,2,0,0,0,.52-.16.54.54,0,0,1,.48,0,.58.58,0,0,1,.33.37.66.66,0,0,1,0,.5.82.82,0,0,1-.32.32,2.27,2.27,0,0,1-.78.27A4.11,4.11,0,0,1,32,63a3,3,0,0,1-1.14-.2,2.08,2.08,0,0,1-.78-.57,2.55,2.55,0,0,1-.44-.87,3.71,3.71,0,0,1-.15-1.08v-.84a3.62,3.62,0,0,1,.17-1.1,2.76,2.76,0,0,1,.47-.9,2.27,2.27,0,0,1,.79-.6,2.51,2.51,0,0,1,1.1-.22,4.53,4.53,0,0,1,.79.07,2.4,2.4,0,0,1,.78.27.92.92,0,0,1,.31.34.59.59,0,0,1,0,.49A.58.58,0,0,1,33.53,58.1Z"/>
<path d="M43.44,62.72a.81.81,0,0,1-.57.23.8.8,0,0,1-.58-.23.78.78,0,0,1-.24-.57V59a2.19,2.19,0,0,0,0-.36.79.79,0,0,0-.12-.3.63.63,0,0,0-.25-.2,1,1,0,0,0-.43-.08,1.21,1.21,0,0,0-.58.14,1.23,1.23,0,0,0-.4.35.49.49,0,0,0,0,.12v3.45a.78.78,0,0,1-.24.57.81.81,0,0,1-.57.23.8.8,0,0,1-.81-.8V59a2.19,2.19,0,0,0,0-.36,1,1,0,0,0-.13-.3.63.63,0,0,0-.25-.2,1,1,0,0,0-.43-.08,1.09,1.09,0,0,0-.55.13,1.07,1.07,0,0,0-.42.34v3.59a.79.79,0,0,1-.8.8.84.84,0,0,1-.59-.23.81.81,0,0,1-.23-.57V58.46a.6.6,0,0,0-.11-.43l-.25-.25a.6.6,0,0,1-.16-.19.59.59,0,0,1,0-.28.56.56,0,0,1,.22-.5,1,1,0,0,1,.58-.16,1.23,1.23,0,0,1,.75.25,1.09,1.09,0,0,1,.28.29,2.49,2.49,0,0,1,.76-.46,2.88,2.88,0,0,1,1-.16,2.32,2.32,0,0,1,1,.18,1.53,1.53,0,0,1,.62.5,2.14,2.14,0,0,1,.77-.5,2.83,2.83,0,0,1,1.06-.18,2.45,2.45,0,0,1,.95.16,1.68,1.68,0,0,1,.62.45,2,2,0,0,1,.33.72,3.82,3.82,0,0,1,.1.92v3.33A.81.81,0,0,1,43.44,62.72Z"/>
<path d="M116.15,59.89a2.17,2.17,0,0,1-.55.8,2.57,2.57,0,0,1-.92.57,3.6,3.6,0,0,1-1.29.21,4.49,4.49,0,0,1-1.26-.16,2.07,2.07,0,0,1-.84-.5.82.82,0,0,1-.29-.61.73.73,0,0,1,.2-.51.66.66,0,0,1,.48-.2.52.52,0,0,1,.28.08,4,4,0,0,1,.35.21,2,2,0,0,0,.46.19,2.26,2.26,0,0,0,.55.06,1.36,1.36,0,0,0,1-.34,1.23,1.23,0,0,0,.36-.93,1.3,1.3,0,0,0-.11-.56.94.94,0,0,0-.29-.36,1.17,1.17,0,0,0-.42-.2,2.35,2.35,0,0,0-.54-.06l-.3,0a.63.63,0,0,1-.28-.11.55.55,0,0,1-.19-.21.88.88,0,0,1-.07-.36.62.62,0,0,1,.09-.34.53.53,0,0,1,.21-.21.63.63,0,0,1,.28-.11l.3,0a2.22,2.22,0,0,0,.51-.06,1.14,1.14,0,0,0,.44-.18,1,1,0,0,0,.42-.84,2,2,0,0,0-.06-.43,1,1,0,0,0-.2-.36.87.87,0,0,0-.35-.26,1.47,1.47,0,0,0-.55-.09,1.77,1.77,0,0,0-.58.08,1.82,1.82,0,0,0-.47.21,2.32,2.32,0,0,0-.31.19.69.69,0,0,1-.36.09.64.64,0,0,1-.65-.69.93.93,0,0,1,.42-.73,2.4,2.4,0,0,1,.77-.42,3.43,3.43,0,0,1,1.24-.2,3,3,0,0,1,1.22.23,2.38,2.38,0,0,1,.79.58,2.23,2.23,0,0,1,.45.77,2.58,2.58,0,0,1,.14.79,2,2,0,0,1-1.3,2A2,2,0,0,1,116.33,59,2.48,2.48,0,0,1,116.15,59.89Z"/>
<path d="M123,59.66a2.59,2.59,0,0,1-.53.91,2.43,2.43,0,0,1-.9.65,3,3,0,0,1-1.3.25,4.22,4.22,0,0,1-1-.12,3,3,0,0,1-.9-.37.91.91,0,0,1-.32-.33.77.77,0,0,1-.1-.38.81.81,0,0,1,.21-.55.68.68,0,0,1,.53-.24.91.91,0,0,1,.23,0,.68.68,0,0,1,.23.11l.46.24a1.52,1.52,0,0,0,.69.14,1.28,1.28,0,0,0,.58-.11,1.07,1.07,0,0,0,.59-.74,2,2,0,0,0,.07-.55,1.41,1.41,0,0,0-.31-1,1,1,0,0,0-.72-.3,1.33,1.33,0,0,0-.53.09,1.65,1.65,0,0,0-.36.22l-.32.22a.54.54,0,0,1-.33.09.84.84,0,0,1-.57-.21.7.7,0,0,1-.21-.6l.12-3.7a.8.8,0,0,1,.26-.55.73.73,0,0,1,.53-.22H122a.82.82,0,0,1,.79.79.79.79,0,0,1-.79.78h-2.21L119.69,56a2.34,2.34,0,0,1,.91-.18,2.43,2.43,0,0,1,1.85.72,2.79,2.79,0,0,1,.69,2A3.49,3.49,0,0,1,123,59.66Z"/>
<path d="M126.23,61.19a1,1,0,0,1-1.35,0,.93.93,0,0,1-.28-.68,1,1,0,0,1,1.63-.68.92.92,0,0,1,.29.68A.94.94,0,0,1,126.23,61.19Z"/>
<path d="M133,59.89a2.17,2.17,0,0,1-.55.8,2.52,2.52,0,0,1-.91.57,3.65,3.65,0,0,1-1.3.21,4.42,4.42,0,0,1-1.25-.16,2.11,2.11,0,0,1-.85-.5.82.82,0,0,1-.29-.61.73.73,0,0,1,.2-.51.68.68,0,0,1,.49-.2.49.49,0,0,1,.27.08,2.93,2.93,0,0,1,.35.21,1.86,1.86,0,0,0,1,.25,1.41,1.41,0,0,0,1-.34,1.26,1.26,0,0,0,.35-.93,1.3,1.3,0,0,0-.11-.56.92.92,0,0,0-.28-.36,1.22,1.22,0,0,0-.43-.2,2.2,2.2,0,0,0-.53-.06l-.31,0a.64.64,0,0,1-.27-.11.55.55,0,0,1-.19-.21.74.74,0,0,1-.07-.36.61.61,0,0,1,.08-.34.7.7,0,0,1,.21-.21.69.69,0,0,1,.28-.11l.3,0a2.1,2.1,0,0,0,.51-.06,1.08,1.08,0,0,0,.44-.18.9.9,0,0,0,.31-.33,1.07,1.07,0,0,0,.11-.51,1.54,1.54,0,0,0-.06-.43,1,1,0,0,0-.19-.36,1,1,0,0,0-.36-.26,1.45,1.45,0,0,0-.54-.09,1.73,1.73,0,0,0-.58.08,1.89,1.89,0,0,0-.48.21,2.32,2.32,0,0,0-.31.19.69.69,0,0,1-.36.09.63.63,0,0,1-.44-.17.64.64,0,0,1-.21-.52.93.93,0,0,1,.42-.73,2.4,2.4,0,0,1,.77-.42,3.48,3.48,0,0,1,1.25-.2,2.9,2.9,0,0,1,1.21.23,2.43,2.43,0,0,1,.8.58,2.2,2.2,0,0,1,.44.77,2.58,2.58,0,0,1,.14.79,2,2,0,0,1-1.3,2,2.17,2.17,0,0,1,1,.72,2.22,2.22,0,0,1,.39,1.4A2.48,2.48,0,0,1,133,59.89Z"/>
<path d="M138.66,56.58a.58.58,0,0,1-.48,0,3.39,3.39,0,0,0-.41-.15,2.34,2.34,0,0,0-.5-.05.91.91,0,0,0-.78.35,1.48,1.48,0,0,0-.28,1v1.1a1.64,1.64,0,0,0,.25,1,.85.85,0,0,0,.75.35l.45,0a2.23,2.23,0,0,0,.52-.17.58.58,0,0,1,.48,0,.54.54,0,0,1,.32.37.61.61,0,0,1,0,.5.82.82,0,0,1-.31.33,3,3,0,0,1-.78.27,5.12,5.12,0,0,1-.78.06,3,3,0,0,1-1.15-.2,2.12,2.12,0,0,1-.77-.57,2.31,2.31,0,0,1-.44-.87,3.71,3.71,0,0,1-.15-1.08v-.84a3.83,3.83,0,0,1,.16-1.09,2.59,2.59,0,0,1,.48-.9,2.23,2.23,0,0,1,.78-.61,2.57,2.57,0,0,1,1.1-.22,4.56,4.56,0,0,1,.8.07,2.22,2.22,0,0,1,.77.28.92.92,0,0,1,.32.33.59.59,0,0,1,0,.49A.58.58,0,0,1,138.66,56.58Z"/>
<path d="M148.57,61.2a.81.81,0,0,1-.57.23.82.82,0,0,1-.59-.23.81.81,0,0,1-.23-.57V57.51a2.19,2.19,0,0,0,0-.36.79.79,0,0,0-.12-.3.71.71,0,0,0-.25-.2,1,1,0,0,0-.43-.08,1.18,1.18,0,0,0-.58.14,1.14,1.14,0,0,0-.4.35v.12a.49.49,0,0,1,0,.12v3.33a.78.78,0,0,1-.24.57.81.81,0,0,1-1.38-.57V57.51a1.47,1.47,0,0,0,0-.36.79.79,0,0,0-.12-.3.67.67,0,0,0-.26-.2,1,1,0,0,0-.42-.08,1.13,1.13,0,0,0-.56.13A1.23,1.23,0,0,0,142,57v3.59a.8.8,0,0,1-.81.8.79.79,0,0,1-.81-.8V56.94a.67.67,0,0,0-.11-.43c-.07-.08-.16-.16-.25-.25a.49.49,0,0,1-.16-.19.58.58,0,0,1-.06-.28.56.56,0,0,1,.23-.5.94.94,0,0,1,.57-.16,1.3,1.3,0,0,1,.76.25,1.27,1.27,0,0,1,.28.29,2.24,2.24,0,0,1,.75-.45,2.73,2.73,0,0,1,1-.17,2.37,2.37,0,0,1,1,.18,1.69,1.69,0,0,1,.62.5,2.24,2.24,0,0,1,.76-.5,2.87,2.87,0,0,1,1.06-.18,2.39,2.39,0,0,1,1,.16,1.47,1.47,0,0,1,.62.46,1.74,1.74,0,0,1,.34.71,4.4,4.4,0,0,1,.1.92v3.33A.81.81,0,0,1,148.57,61.2Z"/>
</svg>
