<?xml version="1.0" encoding="UTF-8"?>
<svg focusable="false" viewBox="0 0 150 133" xmlns="http://www.w3.org/2000/svg">
<rect width="150" height="133" fill="none"/>
<polyline points="72.27 127.74 72.27 52.75 133.62 27.13 133.62 101.97" fill="#af9579"/>
<polygon points="14.68 25.64 14.68 100.54 72.27 127.74 72.27 52.75" fill="#c5a788"/>
<polygon points="75.84 0.08 133.62 27.13 72.27 52.75 14.68 25.64" fill="#dbba97"/>
<polygon points="102.67 12.64 41.39 38.21 46.29 40.52 107.53 14.91" fill="#c59566"/>
<polygon points="46.29 66.5 41.39 64.2 41.39 38.21 46.29 40.52" fill="#b1865c"/>
<polygon points="104.64 13.56 43.62 39.26 43.87 39.37 104.89 13.68" fill="#9e7752" opacity=".5" style="isolation:isolate"/>
<polygon points="84.39 109.97 85.47 109.52 84.11 107.75 82.75 110.66 83.84 110.21 83.84 115.22 80.75 116.52 80.75 111.51 81.83 111.05 80.47 109.28 79.11 112.19 80.2 111.74 80.2 116.75 78.2 117.59 78.2 118.32 86.38 114.88 86.38 114.15 84.39 115" fill="#575756"/>
<path d="M93.77,106.7v-3l-3.5,1.47v3h0c0,.82.64,1.23,1.48,1v2.9l-1.48.62v.54l3.5-1.47v-.54l-1.46.62v-2.9A2.87,2.87,0,0,0,93.77,106.7Z" fill="#575756"/>
<path d="M102.34,100.34v-.27l-.54.23v.27c-2.28,1.08-4.09,3.31-4.09,5.13h0a1.15,1.15,0,0,1,.63-.75.41.41,0,0,1,.62.23h0a1.16,1.16,0,0,1,.62-.76c.31-.12.55,0,.63.23h0a1.15,1.15,0,0,1,.63-.75c.3-.12.55,0,.62.22h0a1.07,1.07,0,0,1,.34-.55v3.07h0a2.07,2.07,0,0,1-1.22,1.73c-.68.28-1.23,0-1.23-.7l-.54.23c0,1,.79,1.43,1.77,1a3,3,0,0,0,1.76-2.48h0v-3.1a.36.36,0,0,1,.36.27h0a1.19,1.19,0,0,1,.62-.75.43.43,0,0,1,.63.23h0a1.15,1.15,0,0,1,.63-.75c.3-.12.55,0,.62.23h0a1.11,1.11,0,0,1,.62-.75c.3-.13.54,0,.62.21C106.43,100.2,104.62,99.49,102.34,100.34Z" fill="#575756"/>
<polygon points="74.1 131.6 133.82 106.6 134.17 107.43 74.46 132.44" fill="#e30613"/>
<polygon points="130.41 106.26 132.01 107.81 132.01 110.03 135.69 106.26" fill="#e30613"/>
<path d="M113.21,129.69a.79.79,0,0,1-.56.23h-4.21a.79.79,0,0,1-.79-.78.79.79,0,0,1,.23-.56.73.73,0,0,1,.56-.23h1.68v-5l-1.46,1a.75.75,0,0,1-.6.11.67.67,0,0,1-.48-.34.77.77,0,0,1,.23-1.09l2.65-1.75a.89.89,0,0,1,.49-.16.82.82,0,0,1,.83.83v6.46h.87a.75.75,0,0,1,.56.23.78.78,0,0,1,.22.56A.75.75,0,0,1,113.21,129.69Z"/>
<path d="M119.63,128.21a2.64,2.64,0,0,1-.53.92,2.43,2.43,0,0,1-.9.65,3.17,3.17,0,0,1-1.3.25,4.22,4.22,0,0,1-1-.12,2.74,2.74,0,0,1-.9-.38.78.78,0,0,1-.32-.33.74.74,0,0,1-.1-.37.83.83,0,0,1,.21-.56.68.68,0,0,1,.53-.24.91.91,0,0,1,.23,0,.73.73,0,0,1,.23.12l.46.24a1.67,1.67,0,0,0,.69.14,1.43,1.43,0,0,0,.58-.11,1.06,1.06,0,0,0,.38-.3,1.1,1.1,0,0,0,.21-.45,1.9,1.9,0,0,0,.07-.54,1.41,1.41,0,0,0-.31-1,1,1,0,0,0-.72-.3,1.33,1.33,0,0,0-.53.09,1.65,1.65,0,0,0-.36.22l-.32.22a.54.54,0,0,1-.33.09.8.8,0,0,1-.57-.22.68.68,0,0,1-.21-.6l.12-3.69a.78.78,0,0,1,.26-.55.73.73,0,0,1,.53-.22h2.91a.76.76,0,0,1,.55.23.77.77,0,0,1,.24.56.8.8,0,0,1-.79.78H116.4l-.06,1.85a2.34,2.34,0,0,1,.91-.18,2.46,2.46,0,0,1,1.85.71,2.83,2.83,0,0,1,.69,2A3.39,3.39,0,0,1,119.63,128.21Z"/>
<path d="M126.58,128.12a2.86,2.86,0,0,1-.55,1,2.66,2.66,0,0,1-.91.67,3.3,3.3,0,0,1-2.47,0,2.66,2.66,0,0,1-.91-.67,3,3,0,0,1-.55-1,4.06,4.06,0,0,1-.18-1.23v-2.7a4.06,4.06,0,0,1,.18-1.23,3,3,0,0,1,.55-1,2.63,2.63,0,0,1,.91-.66,3.18,3.18,0,0,1,2.47,0,2.63,2.63,0,0,1,.91.66,2.81,2.81,0,0,1,.55,1,4.06,4.06,0,0,1,.19,1.23v2.7A4.06,4.06,0,0,1,126.58,128.12Zm-1.47-4a1.77,1.77,0,0,0-.34-1.21,1.2,1.2,0,0,0-1.77,0,1.77,1.77,0,0,0-.34,1.21v2.78a1.77,1.77,0,0,0,.34,1.21,1.22,1.22,0,0,0,1.77,0,1.77,1.77,0,0,0,.34-1.21Z"/>
<path d="M131.93,125.14a.58.58,0,0,1-.48,0L131,125a1.91,1.91,0,0,0-.51,0,1,1,0,0,0-.78.34,1.58,1.58,0,0,0-.27,1v1.1a1.72,1.72,0,0,0,.24,1,.88.88,0,0,0,.75.35,2.28,2.28,0,0,0,.45,0,2.22,2.22,0,0,0,.53-.16.54.54,0,0,1,.48,0,.57.57,0,0,1,.32.37.66.66,0,0,1,0,.5.8.8,0,0,1-.31.32,2.42,2.42,0,0,1-.78.27,4.26,4.26,0,0,1-.78.07,3,3,0,0,1-1.15-.2,2,2,0,0,1-.77-.57,2.57,2.57,0,0,1-.45-.87,4.09,4.09,0,0,1-.14-1.08v-.84a3.61,3.61,0,0,1,.16-1.1,3,3,0,0,1,.47-.9,2.27,2.27,0,0,1,.79-.6,2.54,2.54,0,0,1,1.1-.22,4.64,4.64,0,0,1,.8.07,2.43,2.43,0,0,1,.77.27.84.84,0,0,1,.31.34.59.59,0,0,1,0,.49A.54.54,0,0,1,131.93,125.14Z"/>
<path d="M141.83,129.76a.78.78,0,0,1-.57.23.82.82,0,0,1-.58-.23.77.77,0,0,1-.23-.57v-3.12a2.19,2.19,0,0,0,0-.36.79.79,0,0,0-.12-.3.67.67,0,0,0-.26-.2,1,1,0,0,0-.42-.08,1.16,1.16,0,0,0-.58.14,1.27,1.27,0,0,0-.41.35s0,.08,0,.12,0,.08,0,.12v3.33a.78.78,0,0,1-.24.57.83.83,0,0,1-.58.23.81.81,0,0,1-.57-.23.77.77,0,0,1-.23-.57v-3.12a2.2,2.2,0,0,0,0-.36.81.81,0,0,0-.13-.3.63.63,0,0,0-.25-.2,1,1,0,0,0-.42-.08,1.13,1.13,0,0,0-.56.13,1.15,1.15,0,0,0-.42.34v3.59a.77.77,0,0,1-.23.57.81.81,0,0,1-.57.23.8.8,0,0,1-.58-.23.78.78,0,0,1-.24-.57V125.5a.66.66,0,0,0-.1-.43l-.26-.25a.58.58,0,0,1-.21-.47.54.54,0,0,1,.23-.5.94.94,0,0,1,.57-.16,1.26,1.26,0,0,1,.76.25,1,1,0,0,1,.27.29,2.49,2.49,0,0,1,.76-.46,3,3,0,0,1,1-.16,2.29,2.29,0,0,1,1,.18,1.56,1.56,0,0,1,.63.5,2.1,2.1,0,0,1,.76-.5,2.83,2.83,0,0,1,1.06-.18,2.42,2.42,0,0,1,.95.16,1.61,1.61,0,0,1,.62.45,1.84,1.84,0,0,1,.33.72,3.8,3.8,0,0,1,.11.92v3.33A.78.78,0,0,1,141.83,129.76Z"/>
</svg>
