<?xml version="1.0" encoding="UTF-8"?>
<svg focusable="false" viewBox="0 0 150 120" xmlns="http://www.w3.org/2000/svg">
<rect width="150" height="120" fill="none"/>
<polyline points="72.84 114.52 72.84 52.9 142.45 23.71 142.45 85.33" fill="#af9579"/>
<polygon points="23.43 29.6 23.43 91.18 72.84 114.52 72.84 52.9" fill="#c5a788"/>
<polygon points="93.04 0.34 142.45 23.71 72.84 52.9 23.43 29.6" fill="#dbba97"/>
<polygon points="112.24 9.44 42.86 38.76 53.39 43.73 122.76 14.4" fill="#c59566"/>
<polygon points="53.39 66.38 42.86 61.41 42.86 38.76 53.39 43.73" fill="#b1865c"/>
<polygon points="117.43 11.88 48.01 41.2 48.26 41.31 117.67 11.99" fill="#9e7752" opacity=".5" style="isolation:isolate"/>
<polygon points="74.59 117.86 141 89.72 141.35 90.56 74.94 118.7" fill="#e30613"/>
<polygon points="138.88 89.04 140.38 90.49 140.37 92.58 143.83 89.05" fill="#e30613"/>
<polygon points="24.09 96.33 24.48 95.51 70.25 117.46 69.86 118.28" fill="#e30613"/>
<polygon points="25.71 98.89 25.79 96.8 27.35 95.42 22.4 95.2" fill="#e30613"/>
<rect x="18.87" y="32.75" width="1" height="58.43" fill="#e30613"/>
<polygon points="17.38 34.64 19.36 33.8 21.34 34.64 19.36 29.96" fill="#e30613"/>
<path d="M9.4,22.29a.71.71,0,0,1-.53.22H8.55v.76a.75.75,0,0,1-.23.56.79.79,0,0,1-.57.23.77.77,0,0,1-.56-.23A.79.79,0,0,1,7,23.27v-.76H4.34a.73.73,0,0,1-.75-.76.69.69,0,0,1,0-.22l.06-.17,2.44-5.77a1.27,1.27,0,0,1,.18-.27.83.83,0,0,1,.26-.17.8.8,0,0,1,.3-.06.78.78,0,0,1,.33.07.84.84,0,0,1,.44.45.81.81,0,0,1,0,.63L5.6,21H7V20a.78.78,0,0,1,.23-.57.74.74,0,0,1,.56-.24.76.76,0,0,1,.57.24.74.74,0,0,1,.23.57v1h.32a.68.68,0,0,1,.53.23.73.73,0,0,1,.22.54A.76.76,0,0,1,9.4,22.29Z"/>
<path d="M15.92,22.41a2.48,2.48,0,0,1-1.5,1.45,3.05,3.05,0,0,1-1.15.2,2.68,2.68,0,0,1-1.2-.26,2.55,2.55,0,0,1-.87-.72,3.25,3.25,0,0,1-.53-1,4.38,4.38,0,0,1-.18-1.27,5.19,5.19,0,0,1,.22-1.5,8.3,8.3,0,0,1,.61-1.44,11.41,11.41,0,0,1,.85-1.32c.32-.41.65-.79,1-1.14a.77.77,0,0,1,.29-.19.8.8,0,0,1,.3-.06.76.76,0,0,1,.6.25.81.81,0,0,1,.23.57.82.82,0,0,1-.25.56,11.34,11.34,0,0,0-.86,1,6.18,6.18,0,0,0-.73,1.21,2,2,0,0,1,.7-.13,3.11,3.11,0,0,1,1,.16,2.36,2.36,0,0,1,.87.5,2.43,2.43,0,0,1,.6.83,2.86,2.86,0,0,1,.22,1.18A2.94,2.94,0,0,1,15.92,22.41Zm-1.74-2.06a1.15,1.15,0,0,0-.92-.36,1.62,1.62,0,0,0-.64.12,2,2,0,0,0-.44.24,3,3,0,0,0,0,.41,2.92,2.92,0,0,0,.11.85,1.35,1.35,0,0,0,.27.55,1.08,1.08,0,0,0,.37.31,1,1,0,0,0,.4.09,1.08,1.08,0,0,0,.91-.35,1.4,1.4,0,0,0,.28-.92A1.43,1.43,0,0,0,14.18,20.35Z"/>
<path d="M21.36,19.18a.62.62,0,0,1-.48,0,1.7,1.7,0,0,0-.41-.15A1.8,1.8,0,0,0,20,19a.93.93,0,0,0-.78.35,1.49,1.49,0,0,0-.28,1v1.11a1.61,1.61,0,0,0,.25,1,.84.84,0,0,0,.75.36,3.75,3.75,0,0,0,.45,0,1.84,1.84,0,0,0,.52-.17.57.57,0,0,1,.48,0,.53.53,0,0,1,.32.36.64.64,0,0,1,0,.51.79.79,0,0,1-.31.32,2.42,2.42,0,0,1-.78.27,5.26,5.26,0,0,1-.78.07,2.85,2.85,0,0,1-1.15-.21,1.92,1.92,0,0,1-.77-.57,2.43,2.43,0,0,1-.45-.86,4.17,4.17,0,0,1-.14-1.09v-.84a3.55,3.55,0,0,1,.16-1.09,2.78,2.78,0,0,1,.48-.9,2.15,2.15,0,0,1,.78-.61,2.7,2.7,0,0,1,1.1-.22,5.77,5.77,0,0,1,.8.07,2.22,2.22,0,0,1,.77.28,1,1,0,0,1,.32.34.59.59,0,0,1,0,.49A.63.63,0,0,1,21.36,19.18Z"/>
<path d="M31.26,23.79a.75.75,0,0,1-.57.24.78.78,0,0,1-.58-.24.78.78,0,0,1-.23-.57V20.1a2,2,0,0,0,0-.35.68.68,0,0,0-.12-.3.74.74,0,0,0-.25-.21,1,1,0,0,0-.43-.07,1.18,1.18,0,0,0-.58.13,1.16,1.16,0,0,0-.4.36v.12a.49.49,0,0,1,0,.12v3.32a.75.75,0,0,1-.24.57.81.81,0,0,1-1.15,0,.78.78,0,0,1-.23-.57V20.1a1.34,1.34,0,0,0,0-.35.68.68,0,0,0-.12-.3.69.69,0,0,0-.26-.21,1,1,0,0,0-.42-.07,1.25,1.25,0,0,0-.56.12,1.36,1.36,0,0,0-.41.34v3.59a.82.82,0,0,1-.81.81.78.78,0,0,1-.58-.24.74.74,0,0,1-.23-.57V19.54a.65.65,0,0,0-.11-.43l-.25-.26a.46.46,0,0,1-.16-.18.61.61,0,0,1-.06-.28.58.58,0,0,1,.23-.51,1,1,0,0,1,.57-.15A1.24,1.24,0,0,1,24,18a1.09,1.09,0,0,1,.28.29,2.11,2.11,0,0,1,.75-.46,3,3,0,0,1,1-.17,2.37,2.37,0,0,1,1,.18,1.62,1.62,0,0,1,.62.51,2.12,2.12,0,0,1,.76-.51,2.89,2.89,0,0,1,1.07-.18,2.56,2.56,0,0,1,.94.16,1.53,1.53,0,0,1,.62.46,1.8,1.8,0,0,1,.34.71,4.42,4.42,0,0,1,.1.93v3.32A.75.75,0,0,1,31.26,23.79Z"/>
<path d="M22,115.06a.7.7,0,0,1-.53.23h-.31v.76a.82.82,0,0,1-.8.79.75.75,0,0,1-.57-.24.76.76,0,0,1-.23-.55v-.76H17a.76.76,0,0,1-.54-.21.75.75,0,0,1-.22-.56.58.58,0,0,1,0-.21.87.87,0,0,1,.07-.17l2.43-5.77a.77.77,0,0,1,.19-.27.76.76,0,0,1,.26-.18.73.73,0,0,1,.3-.06.88.88,0,0,1,.32.07.82.82,0,0,1,.43,1.08l-2,4.74h1.35v-1a.81.81,0,0,1,.23-.57.81.81,0,0,1,1.37.57v1h.31A.7.7,0,0,1,22,114a.75.75,0,0,1,0,1.08Z"/>
<path d="M28.54,115.19a2.64,2.64,0,0,1-.6.89,2.59,2.59,0,0,1-.9.56,3.36,3.36,0,0,1-1.16.2,2.71,2.71,0,0,1-1.2-.26,2.47,2.47,0,0,1-.87-.73,3.24,3.24,0,0,1-.53-1,4.26,4.26,0,0,1-.18-1.26,5.27,5.27,0,0,1,.23-1.51,7.55,7.55,0,0,1,.6-1.44,10.56,10.56,0,0,1,.86-1.31,11.14,11.14,0,0,1,1-1.14.85.85,0,0,1,.29-.19.89.89,0,0,1,.3-.06.78.78,0,0,1,.6.24.85.85,0,0,1,.23.57.78.78,0,0,1-.25.57,11.11,11.11,0,0,0-.85,1,6.54,6.54,0,0,0-.74,1.21,2.26,2.26,0,0,1,.7-.13,3.52,3.52,0,0,1,1,.16,2.56,2.56,0,0,1,.86.5,2.47,2.47,0,0,1,.6.84,2.83,2.83,0,0,1,.22,1.18A3.13,3.13,0,0,1,28.54,115.19Zm-1.75-2.06a1.13,1.13,0,0,0-.92-.36,1.73,1.73,0,0,0-.63.11,2.06,2.06,0,0,0-.45.25,3.29,3.29,0,0,0,.07,1.25,1.72,1.72,0,0,0,.27.56,1,1,0,0,0,.37.3.88.88,0,0,0,.41.1,1.11,1.11,0,0,0,.91-.35,1.46,1.46,0,0,0,.28-.92A1.37,1.37,0,0,0,26.79,113.13Z"/>
<path d="M34,112a.62.62,0,0,1-.48,0,2.86,2.86,0,0,0-.41-.15,2.27,2.27,0,0,0-.5-.05.92.92,0,0,0-.78.35,1.53,1.53,0,0,0-.28,1v1.1a1.72,1.72,0,0,0,.25,1,.83.83,0,0,0,.75.35,3.52,3.52,0,0,0,.45,0,2.09,2.09,0,0,0,.52-.17.62.62,0,0,1,.48,0,.58.58,0,0,1,.33.37.65.65,0,0,1,0,.5.85.85,0,0,1-.32.33,2.78,2.78,0,0,1-.78.27,5.12,5.12,0,0,1-.78.06,3,3,0,0,1-1.14-.2,2.08,2.08,0,0,1-.78-.57,2.26,2.26,0,0,1-.44-.86,3.83,3.83,0,0,1-.15-1.09v-.84a3.51,3.51,0,0,1,.17-1.09,2.41,2.41,0,0,1,.47-.9,2.18,2.18,0,0,1,.79-.61,2.5,2.5,0,0,1,1.09-.22,4.56,4.56,0,0,1,.8.07,2.27,2.27,0,0,1,.78.28.89.89,0,0,1,.31.33.59.59,0,0,1,0,.49A.62.62,0,0,1,34,112Z"/>
<path d="M43.88,116.57a.81.81,0,0,1-.57.23.8.8,0,0,1-.58-.23.78.78,0,0,1-.24-.57v-3.12a2.19,2.19,0,0,0,0-.36.79.79,0,0,0-.12-.3.63.63,0,0,0-.25-.2,1,1,0,0,0-.43-.08,1.21,1.21,0,0,0-.58.14,1.23,1.23,0,0,0-.4.35.49.49,0,0,0,0,.12V116a.78.78,0,0,1-.24.57.81.81,0,0,1-.57.23.8.8,0,0,1-.81-.8v-3.12a2.19,2.19,0,0,0,0-.36,1,1,0,0,0-.13-.3.63.63,0,0,0-.25-.2,1,1,0,0,0-.43-.08,1.16,1.16,0,0,0-.56.13,1.23,1.23,0,0,0-.41.34V116a.79.79,0,0,1-.8.8.82.82,0,0,1-.59-.23.81.81,0,0,1-.23-.57v-3.69a.67.67,0,0,0-.11-.43,2.94,2.94,0,0,0-.25-.25.6.6,0,0,1-.16-.19.58.58,0,0,1-.06-.28.56.56,0,0,1,.23-.5,1,1,0,0,1,.58-.16,1.3,1.3,0,0,1,.75.25,1.09,1.09,0,0,1,.28.29,2.29,2.29,0,0,1,.76-.45,2.66,2.66,0,0,1,1-.17,2.32,2.32,0,0,1,1,.18,1.62,1.62,0,0,1,.62.5,2.28,2.28,0,0,1,.77-.5,2.83,2.83,0,0,1,1.06-.18,2.45,2.45,0,0,1,1,.16,1.5,1.5,0,0,1,.61.46,1.74,1.74,0,0,1,.34.71,3.82,3.82,0,0,1,.1.92V116A.81.81,0,0,1,43.88,116.57Z"/>
<path d="M114.8,114.52a2.66,2.66,0,0,1-.59.89,2.58,2.58,0,0,1-.91.56,3.09,3.09,0,0,1-1.15.2,2.73,2.73,0,0,1-1.21-.26,2.55,2.55,0,0,1-.87-.72,3.35,3.35,0,0,1-.53-1,4.38,4.38,0,0,1-.18-1.27,5.2,5.2,0,0,1,.23-1.5,7,7,0,0,1,.61-1.44,10.22,10.22,0,0,1,.85-1.32,12.19,12.19,0,0,1,1-1.14.73.73,0,0,1,.28-.19.89.89,0,0,1,.3-.06.76.76,0,0,1,.6.25.79.79,0,0,1,0,1.13,11.32,11.32,0,0,0-.85,1,6.18,6.18,0,0,0-.73,1.21,2,2,0,0,1,.69-.13,3.22,3.22,0,0,1,1,.16,2.4,2.4,0,0,1,.86.5,2.43,2.43,0,0,1,.6.83,2.86,2.86,0,0,1,.22,1.18A3.09,3.09,0,0,1,114.8,114.52Zm-1.75-2.06a1.13,1.13,0,0,0-.92-.36,1.54,1.54,0,0,0-.63.12,2.07,2.07,0,0,0-.45.24,3.34,3.34,0,0,0,.07,1.26,1.66,1.66,0,0,0,.27.55,1.18,1.18,0,0,0,.37.31,1,1,0,0,0,.41.09,1.08,1.08,0,0,0,.91-.35,1.44,1.44,0,0,0,.28-.92A1.4,1.4,0,0,0,113.05,112.46Z"/>
<path d="M121.67,115.84a.74.74,0,0,1-.55.22h-4.21a.76.76,0,0,1-.56-.22.78.78,0,0,1-.23-.55.77.77,0,0,1,.23-.56.74.74,0,0,1,.56-.24h1.68v-5l-1.46,1a.79.79,0,0,1-.6.11.7.7,0,0,1-.48-.34.8.8,0,0,1-.12-.6.76.76,0,0,1,.35-.49l2.65-1.76a.93.93,0,0,1,.49-.15.81.81,0,0,1,.59.24.79.79,0,0,1,.24.59v6.45h.87a.72.72,0,0,1,.55.24.73.73,0,0,1,.23.56A.74.74,0,0,1,121.67,115.84Z"/>
<path d="M127,111.29a.64.64,0,0,1-.49,0,1.63,1.63,0,0,0-.4-.15,1.88,1.88,0,0,0-.51-.06,1,1,0,0,0-.78.35,1.55,1.55,0,0,0-.27,1v1.11a1.68,1.68,0,0,0,.24,1,.86.86,0,0,0,.75.36,3.42,3.42,0,0,0,.45,0,1.75,1.75,0,0,0,.52-.17.6.6,0,0,1,.49,0,.58.58,0,0,1,.32.36.68.68,0,0,1,0,.51,1,1,0,0,1-.31.32,2.39,2.39,0,0,1-.79.27,5.14,5.14,0,0,1-.78.07,2.8,2.8,0,0,1-1.14-.21,1.89,1.89,0,0,1-.78-.57,2.42,2.42,0,0,1-.44-.86,3.78,3.78,0,0,1-.14-1.09v-.84a3.6,3.6,0,0,1,.16-1.09,2.76,2.76,0,0,1,.47-.9,2.3,2.3,0,0,1,.79-.61,2.7,2.7,0,0,1,1.1-.22,6,6,0,0,1,.8.07,2.22,2.22,0,0,1,.77.28.92.92,0,0,1,.31.34.59.59,0,0,1,0,.49A.62.62,0,0,1,127,111.29Z"/>
<path d="M136.86,115.9a.78.78,0,0,1-.57.24.77.77,0,0,1-.58-.24.75.75,0,0,1-.24-.57v-3.12a2,2,0,0,0,0-.35.68.68,0,0,0-.12-.3.65.65,0,0,0-.25-.21,1,1,0,0,0-.42-.07,1.12,1.12,0,0,0-.59.14,1.35,1.35,0,0,0-.4.35.49.49,0,0,0,0,.12v3.44a.75.75,0,0,1-.24.57.78.78,0,0,1-.57.24.82.82,0,0,1-.81-.81v-3.12a2,2,0,0,0,0-.35.83.83,0,0,0-.13-.3.65.65,0,0,0-.25-.21,1,1,0,0,0-.43-.07,1.23,1.23,0,0,0-.55.12,1.19,1.19,0,0,0-.42.35v3.58a.81.81,0,0,1-1.38.57.75.75,0,0,1-.24-.57v-3.68a.6.6,0,0,0-.11-.43,2.94,2.94,0,0,0-.25-.26.54.54,0,0,1-.15-.18.61.61,0,0,1-.06-.28.58.58,0,0,1,.22-.51,1.06,1.06,0,0,1,.58-.15,1.28,1.28,0,0,1,.76.25.92.92,0,0,1,.27.29,2.15,2.15,0,0,1,.76-.46,2.87,2.87,0,0,1,1-.17,2.29,2.29,0,0,1,1,.18,1.58,1.58,0,0,1,.63.51,2,2,0,0,1,.76-.51,2.83,2.83,0,0,1,1.06-.18,2.41,2.41,0,0,1,.95.17,1.49,1.49,0,0,1,.62.45,1.94,1.94,0,0,1,.33.71,3.9,3.9,0,0,1,.1.93v3.32A.74.74,0,0,1,136.86,115.9Z"/>
<polygon points="87.81 93.68 89.26 93.07 87.44 90.7 85.63 94.6 87.08 93.99 87.08 100.67 82.96 102.41 82.96 95.72 84.41 95.11 82.59 92.74 80.78 96.64 82.23 96.03 82.23 102.72 79.56 103.84 79.56 104.8 90.47 100.21 90.47 99.25 87.81 100.37" fill="#575756"/>
<path d="M100.32,89.31v-4l-4.66,1.95v4h0c0,1.1.85,1.64,2,1.34v3.86l-2,.83V98l4.67-2v-.72l-1.94.83V92.3A3.88,3.88,0,0,0,100.32,89.31Z" fill="#575756"/>
<path d="M111.75,80.83v-.36l-.72.3v.36c-3,1.45-5.46,4.43-5.46,6.84h0a1.54,1.54,0,0,1,.84-1c.4-.17.74,0,.83.3h0a1.54,1.54,0,0,1,.83-1c.41-.17.74,0,.84.3h0a1.51,1.51,0,0,1,.83-1c.41-.17.74,0,.83.3h0a1.49,1.49,0,0,1,.45-.74v4.09h0a2.78,2.78,0,0,1-1.62,2.31c-.9.38-1.63,0-1.63-.94l-.73.31c0,1.29,1.06,1.9,2.36,1.36a4,4,0,0,0,2.35-3.3h0V84.83a.47.47,0,0,1,.48.36h0a1.5,1.5,0,0,1,.83-1c.4-.17.73,0,.83.3h0a1.56,1.56,0,0,1,.84-1,.56.56,0,0,1,.83.3h0a1.51,1.51,0,0,1,.83-1c.39-.16.72,0,.83.28C117.21,80.65,114.79,79.7,111.75,80.83Z" fill="#575756"/>
</svg>
