<?xml version="1.0" encoding="UTF-8"?>
<svg focusable="false" viewBox="0 0 150 87" xmlns="http://www.w3.org/2000/svg">
<rect width="150" height="87" fill="none"/>
<polyline points="76.86 82.43 76.86 52.73 145.1 23.98 145.1 53.73" fill="#af9579"/>
<polygon points="26.8 28.99 26.8 58.75 76.86 82.43 76.86 52.73" fill="#c5a788"/>
<polygon points="95.12 0.34 145.1 23.98 76.86 52.73 26.8 28.99" fill="#dbba97"/>
<polygon points="59.12 59.84 44.51 52.91 44.51 37.39 59.12 44.32" fill="#b1865c"/>
<polygon points="112.78 8.7 44.51 37.39 59.12 44.32 127.42 15.61" fill="#c59566"/>
<polygon points="119.98 12.1 51.69 40.8 51.94 40.91 120.22 12.21" fill="#9e7752" opacity=".5" style="isolation:isolate"/>
<polygon points="78.27 85.6 144.29 57.99 144.64 58.82 78.62 86.43" fill="#e30613"/>
<polygon points="141.59 57.5 143.08 58.95 143.07 61.03 146.51 57.51" fill="#e30613"/>
<polygon points="27.37 63.94 27.76 63.12 75.28 85.2 74.89 86.02" fill="#e30613"/>
<polygon points="29.08 66.44 29.16 64.36 30.72 62.97 25.79 62.76" fill="#e30613"/>
<rect x="22.3" y="32.16" width="1" height="26.59" fill="#e30613"/>
<polygon points="20.82 33.11 22.79 32.27 24.77 33.11 22.79 28.45" fill="#e30613"/>
<path d="M9.42,24.27a.76.76,0,0,1-.55.23H4.65a.79.79,0,0,1-.79-.78.79.79,0,0,1,.23-.56.73.73,0,0,1,.56-.23H6.33v-5l-1.46,1a.73.73,0,0,1-.59.11.67.67,0,0,1-.49-.34A.79.79,0,0,1,4,17.55L6.67,15.8a.89.89,0,0,1,.49-.16.82.82,0,0,1,.83.83v6.46h.88a.73.73,0,0,1,.55.23.79.79,0,0,1,.23.56A.76.76,0,0,1,9.42,24.27Z"/>
<path d="M16,23a2.57,2.57,0,0,1-.59.88,2.51,2.51,0,0,1-.91.57,3.27,3.27,0,0,1-1.15.2,2.6,2.6,0,0,1-1.21-.27,2.51,2.51,0,0,1-.87-.72,3.23,3.23,0,0,1-.52-1.05,4.31,4.31,0,0,1-.18-1.26,5.21,5.21,0,0,1,.22-1.51,8.3,8.3,0,0,1,.61-1.44,10.5,10.5,0,0,1,.85-1.31,11.2,11.2,0,0,1,1-1.14.82.82,0,0,1,1.19,0,.81.81,0,0,1,.23.57.76.76,0,0,1-.26.56,11.32,11.32,0,0,0-.85,1,6.49,6.49,0,0,0-.73,1.21,2,2,0,0,1,.7-.13,3.11,3.11,0,0,1,1,.16,2.6,2.6,0,0,1,.87.5,2.43,2.43,0,0,1,.6.83,3.08,3.08,0,0,1,.22,1.19A2.94,2.94,0,0,1,16,23ZM14.24,20.9a1.15,1.15,0,0,0-.92-.36,1.83,1.83,0,0,0-.64.11,2,2,0,0,0-.44.25,1.84,1.84,0,0,0,0,.41,3.33,3.33,0,0,0,.1.84,1.66,1.66,0,0,0,.27.55A1.09,1.09,0,0,0,13,23a1,1,0,0,0,.4.1,1.11,1.11,0,0,0,.91-.35,1.64,1.64,0,0,0,0-1.86Z"/>
<path d="M21.42,19.72a.58.58,0,0,1-.48,0,3.39,3.39,0,0,0-.41-.15,1.83,1.83,0,0,0-.5,0,.93.93,0,0,0-.78.34,1.52,1.52,0,0,0-.28,1v1.1a1.64,1.64,0,0,0,.25,1,.85.85,0,0,0,.75.35,2.42,2.42,0,0,0,.45,0,2.16,2.16,0,0,0,.52-.16.57.57,0,0,1,.8.36.61.61,0,0,1,0,.5.8.8,0,0,1-.31.32,2.42,2.42,0,0,1-.78.27,4.26,4.26,0,0,1-.78.07,3,3,0,0,1-1.15-.2,2.12,2.12,0,0,1-.77-.57,2.57,2.57,0,0,1-.45-.87,4.09,4.09,0,0,1-.14-1.08V21a3.61,3.61,0,0,1,.16-1.1A2.78,2.78,0,0,1,18,19a2.23,2.23,0,0,1,.78-.6,2.54,2.54,0,0,1,1.1-.22,4.64,4.64,0,0,1,.8.07,2.43,2.43,0,0,1,.77.27.84.84,0,0,1,.31.34.53.53,0,0,1,0,.49A.54.54,0,0,1,21.42,19.72Z"/>
<path d="M31.32,24.34a.78.78,0,0,1-.57.23.79.79,0,0,1-.81-.8V20.65a2.19,2.19,0,0,0,0-.36.79.79,0,0,0-.12-.3.71.71,0,0,0-.25-.2,1,1,0,0,0-.43-.08,1.18,1.18,0,0,0-.58.14,1.14,1.14,0,0,0-.4.35v.12a.49.49,0,0,1,0,.12v3.33a.78.78,0,0,1-.24.57.81.81,0,0,1-1.38-.57V20.65a1.47,1.47,0,0,0,0-.36.79.79,0,0,0-.12-.3.67.67,0,0,0-.26-.2,1,1,0,0,0-.42-.08,1.13,1.13,0,0,0-.56.13,1.12,1.12,0,0,0-.41.34v3.59a.8.8,0,0,1-.81.8.82.82,0,0,1-.58-.23.77.77,0,0,1-.23-.57V20.08a.65.65,0,0,0-.11-.43l-.25-.25a.49.49,0,0,1-.16-.19.58.58,0,0,1-.06-.28.56.56,0,0,1,.23-.5.94.94,0,0,1,.57-.16,1.24,1.24,0,0,1,.76.25,1.27,1.27,0,0,1,.28.29,2.43,2.43,0,0,1,.75-.46,3,3,0,0,1,1-.16,2.37,2.37,0,0,1,1,.18,1.6,1.6,0,0,1,.62.5,2.1,2.1,0,0,1,.76-.5,2.87,2.87,0,0,1,1.06-.18,2.39,2.39,0,0,1,.95.16,1.61,1.61,0,0,1,.62.45,1.85,1.85,0,0,1,.34.72,4.4,4.4,0,0,1,.1.92v3.33A.78.78,0,0,1,31.32,24.34Z"/>
<path d="M25,81.79a2.17,2.17,0,0,1-.55.8,2.57,2.57,0,0,1-.92.57,3.6,3.6,0,0,1-1.29.21A4,4,0,0,1,21,83.2a1.93,1.93,0,0,1-.85-.49.83.83,0,0,1-.29-.62.7.7,0,0,1,.2-.5.62.62,0,0,1,.48-.2.58.58,0,0,1,.28.07l.35.21a1.84,1.84,0,0,0,.46.2,2.26,2.26,0,0,0,.55.06,1.32,1.32,0,0,0,1-.35,1.2,1.2,0,0,0,.36-.93,1.25,1.25,0,0,0-.11-.55.94.94,0,0,0-.29-.36,1,1,0,0,0-.42-.2,2.35,2.35,0,0,0-.54-.06,1.53,1.53,0,0,1-.3,0,.63.63,0,0,1-.27-.1.58.58,0,0,1-.2-.21.92.92,0,0,1-.07-.36.62.62,0,0,1,.09-.34.63.63,0,0,1,.21-.22.77.77,0,0,1,.28-.1,1.53,1.53,0,0,1,.3,0,2.22,2.22,0,0,0,.51-.06,1.14,1.14,0,0,0,.44-.18.87.87,0,0,0,.3-.33,1,1,0,0,0,.12-.51,1.54,1.54,0,0,0-.06-.43,1,1,0,0,0-.2-.37,1,1,0,0,0-.35-.25,1.47,1.47,0,0,0-.55-.09,2.1,2.1,0,0,0-.58.07,2.9,2.9,0,0,0-.47.21c-.11.07-.22.13-.31.2a.69.69,0,0,1-.36.09.72.72,0,0,1-.45-.17.67.67,0,0,1-.2-.52,1,1,0,0,1,.42-.74,2.85,2.85,0,0,1,.77-.42,3.67,3.67,0,0,1,1.24-.19,3,3,0,0,1,1.22.23,2.39,2.39,0,0,1,.8.58,2.16,2.16,0,0,1,.44.76,2.64,2.64,0,0,1,.14.8,2,2,0,0,1-1.3,2,2.32,2.32,0,0,1,1,.73,2.22,2.22,0,0,1,.39,1.4A2.48,2.48,0,0,1,25,81.79Z"/>
<path d="M31.82,81.55a2.61,2.61,0,0,1-1.42,1.57,3.26,3.26,0,0,1-1.31.25,4.28,4.28,0,0,1-1-.12,2.74,2.74,0,0,1-.9-.38.78.78,0,0,1-.32-.33.74.74,0,0,1-.1-.37.83.83,0,0,1,.21-.56.68.68,0,0,1,.53-.24.91.91,0,0,1,.23,0,.73.73,0,0,1,.23.12l.46.24a1.67,1.67,0,0,0,.69.14,1.43,1.43,0,0,0,.58-.11,1.06,1.06,0,0,0,.38-.3,1.1,1.1,0,0,0,.21-.45,1.9,1.9,0,0,0,.07-.54,1.41,1.41,0,0,0-.31-1,1,1,0,0,0-.72-.3,1.33,1.33,0,0,0-.53.09,1.65,1.65,0,0,0-.36.22l-.32.22a.54.54,0,0,1-.33.09.8.8,0,0,1-.57-.22A.71.71,0,0,1,27,79l.12-3.69a.78.78,0,0,1,.26-.55.74.74,0,0,1,.53-.22H30.8a.76.76,0,0,1,.55.23.77.77,0,0,1,.24.56.8.8,0,0,1-.79.78H28.59l-.06,1.85a2.34,2.34,0,0,1,.91-.18,2.46,2.46,0,0,1,1.85.71,2.83,2.83,0,0,1,.69,2A3.39,3.39,0,0,1,31.82,81.55Z"/>
<path d="M37.4,78.48a.58.58,0,0,1-.48,0l-.41-.15a1.91,1.91,0,0,0-.51,0,1,1,0,0,0-.78.34,1.58,1.58,0,0,0-.27,1v1.1a1.72,1.72,0,0,0,.24,1,.88.88,0,0,0,.75.35,2.45,2.45,0,0,0,.46,0,2.3,2.3,0,0,0,.52-.16.54.54,0,0,1,.48,0,.57.57,0,0,1,.32.37.66.66,0,0,1,0,.5.8.8,0,0,1-.31.32,2.42,2.42,0,0,1-.78.27,4.26,4.26,0,0,1-.78.07,3,3,0,0,1-1.15-.2,2,2,0,0,1-.77-.57,2.57,2.57,0,0,1-.45-.87,4.09,4.09,0,0,1-.14-1.08v-.84a3.61,3.61,0,0,1,.16-1.1,3,3,0,0,1,.47-.9,2.27,2.27,0,0,1,.79-.6,2.54,2.54,0,0,1,1.1-.22,4.64,4.64,0,0,1,.8.07,2.43,2.43,0,0,1,.77.27.84.84,0,0,1,.31.34.59.59,0,0,1,0,.49A.54.54,0,0,1,37.4,78.48Z"/>
<path d="M47.3,83.1a.78.78,0,0,1-.57.23.82.82,0,0,1-.58-.23.77.77,0,0,1-.23-.57V79.41a2.19,2.19,0,0,0,0-.36.79.79,0,0,0-.12-.3.67.67,0,0,0-.26-.2,1,1,0,0,0-.42-.08,1.16,1.16,0,0,0-.58.14,1.27,1.27,0,0,0-.41.35s0,.08,0,.12,0,.08,0,.12v3.33a.78.78,0,0,1-.24.57.83.83,0,0,1-.58.23.81.81,0,0,1-.57-.23.77.77,0,0,1-.23-.57V79.41a2.2,2.2,0,0,0,0-.36.81.81,0,0,0-.13-.3.63.63,0,0,0-.25-.2,1,1,0,0,0-.42-.08,1.13,1.13,0,0,0-.56.13,1.15,1.15,0,0,0-.42.34v3.59a.77.77,0,0,1-.23.57.81.81,0,0,1-.57.23.8.8,0,0,1-.58-.23.78.78,0,0,1-.24-.57V78.84a.66.66,0,0,0-.1-.43l-.26-.25a.58.58,0,0,1-.21-.47.54.54,0,0,1,.23-.5.94.94,0,0,1,.57-.16,1.26,1.26,0,0,1,.76.25,1,1,0,0,1,.27.29,2.49,2.49,0,0,1,.76-.46,3,3,0,0,1,1-.16,2.29,2.29,0,0,1,1,.18,1.56,1.56,0,0,1,.63.5,2.1,2.1,0,0,1,.76-.5A2.83,2.83,0,0,1,45.53,77a2.42,2.42,0,0,1,.95.16,1.61,1.61,0,0,1,.62.45,1.84,1.84,0,0,1,.33.72,3.8,3.8,0,0,1,.11.92v3.33A.78.78,0,0,1,47.3,83.1Z"/>
<path d="M119.7,81.59a.74.74,0,0,1-.54.23h-.31v.75a.77.77,0,0,1-.23.56.78.78,0,0,1-.57.24.75.75,0,0,1-.57-.24.77.77,0,0,1-.23-.56v-.75h-2.61a.73.73,0,0,1-.54-.22.76.76,0,0,1-.22-.55.69.69,0,0,1,0-.22l.07-.16,2.44-5.78a.68.68,0,0,1,.18-.26.77.77,0,0,1,.56-.24.71.71,0,0,1,.32.07.78.78,0,0,1,.44.45.86.86,0,0,1,0,.63l-2,4.74h1.35v-1a.81.81,0,0,1,.23-.57.74.74,0,0,1,.57-.23.77.77,0,0,1,.57.23.81.81,0,0,1,.23.57v1h.31a.74.74,0,0,1,.54.23.77.77,0,0,1,0,1.08Z"/>
<path d="M126.08,81.55a2.55,2.55,0,0,1-.53.92,2.43,2.43,0,0,1-.9.65,3.17,3.17,0,0,1-1.3.25,4.22,4.22,0,0,1-1-.12,3,3,0,0,1-.9-.37,1,1,0,0,1-.33-.34.84.84,0,0,1-.09-.37.83.83,0,0,1,.21-.56.7.7,0,0,1,.53-.23.78.78,0,0,1,.22,0,.68.68,0,0,1,.24.12l.46.24a1.67,1.67,0,0,0,.69.14,1.43,1.43,0,0,0,.58-.11,1.15,1.15,0,0,0,.38-.3,1.1,1.1,0,0,0,.21-.45,1.9,1.9,0,0,0,.07-.54,1.41,1.41,0,0,0-.31-1,1,1,0,0,0-.73-.3,1.31,1.31,0,0,0-.52.09,1.65,1.65,0,0,0-.36.22l-.32.22a.56.56,0,0,1-.33.09.78.78,0,0,1-.57-.22.68.68,0,0,1-.21-.6l.12-3.69a.78.78,0,0,1,.26-.55.73.73,0,0,1,.53-.22h2.9a.8.8,0,0,1,.8.79.72.72,0,0,1-.24.55.73.73,0,0,1-.56.23h-2.2l-.06,1.85a2.34,2.34,0,0,1,.91-.18,2.48,2.48,0,0,1,1.85.71,2.83,2.83,0,0,1,.69,2A3.39,3.39,0,0,1,126.08,81.55Z"/>
<path d="M131.66,78.48a.6.6,0,0,1-.49,0,3.25,3.25,0,0,0-.4-.15,1.91,1.91,0,0,0-.51,0,1,1,0,0,0-.78.34,1.58,1.58,0,0,0-.27,1v1.1a1.72,1.72,0,0,0,.24,1,.88.88,0,0,0,.75.35,2.28,2.28,0,0,0,.45,0,2,2,0,0,0,.52-.16.56.56,0,0,1,.49,0,.6.6,0,0,1,.32.37.66.66,0,0,1,0,.5.87.87,0,0,1-.31.32,2.42,2.42,0,0,1-.78.27,4.29,4.29,0,0,1-.79.07,3,3,0,0,1-1.14-.2,2.16,2.16,0,0,1-.78-.57,2.55,2.55,0,0,1-.44-.87,3.71,3.71,0,0,1-.14-1.08v-.84a3.61,3.61,0,0,1,.16-1.1,2.76,2.76,0,0,1,.47-.9,2.27,2.27,0,0,1,.79-.6,2.54,2.54,0,0,1,1.1-.22,4.73,4.73,0,0,1,.8.07,2.43,2.43,0,0,1,.77.27.92.92,0,0,1,.31.34.59.59,0,0,1,0,.49A.57.57,0,0,1,131.66,78.48Z"/>
<path d="M141.56,83.1a.81.81,0,0,1-.57.23.8.8,0,0,1-.58-.23.78.78,0,0,1-.24-.57V79.41a2.19,2.19,0,0,0,0-.36.79.79,0,0,0-.12-.3.63.63,0,0,0-.25-.2,1,1,0,0,0-.42-.08,1.22,1.22,0,0,0-.59.14,1.35,1.35,0,0,0-.4.35.49.49,0,0,0,0,.12s0,.08,0,.12v3.33a.79.79,0,0,1-.25.57.81.81,0,0,1-.57.23.8.8,0,0,1-.81-.8V79.41a2.19,2.19,0,0,0,0-.36,1,1,0,0,0-.13-.3.63.63,0,0,0-.25-.2,1,1,0,0,0-.43-.08,1.12,1.12,0,0,0-.55.13,1.07,1.07,0,0,0-.42.34v3.59a.79.79,0,0,1-.8.8.8.8,0,0,1-.58-.23.78.78,0,0,1-.24-.57V78.84a.6.6,0,0,0-.11-.43l-.25-.25a.58.58,0,0,1-.21-.47.56.56,0,0,1,.22-.5,1,1,0,0,1,.58-.16,1.28,1.28,0,0,1,.76.25,1,1,0,0,1,.27.29,2.49,2.49,0,0,1,.76-.46,2.88,2.88,0,0,1,1-.16,2.29,2.29,0,0,1,1,.18,1.56,1.56,0,0,1,.63.5,2,2,0,0,1,.76-.5,2.83,2.83,0,0,1,1.06-.18,2.42,2.42,0,0,1,1,.16,1.68,1.68,0,0,1,.62.45,2,2,0,0,1,.33.72,3.82,3.82,0,0,1,.1.92v3.33A.77.77,0,0,1,141.56,83.1Z"/>
<polygon points="91.58 60.55 93.28 59.83 91.16 57.08 89.04 61.62 90.73 60.91 90.73 68.71 85.92 70.73 85.92 62.93 87.61 62.22 85.5 59.46 83.38 64 85.07 63.28 85.07 71.09 81.97 72.4 81.97 73.53 94.69 68.17 94.69 67.05 91.58 68.36" fill="#575756"/>
<path d="m106.18 55.45v-4.69l-5.44 2.24v4.7c0 1.28 1 1.91 2.3 1.56v4.51l-2.3 1v0.84l5.44-2.29v-0.84l-2.27 1v-4.54a4.52 4.52 0 0 0 2.27-3.49z" fill="#575756"/>
<path d="M119.52,45.56v-.42l-.85.35v.42c-3.55,1.69-6.36,5.16-6.36,8h0a1.75,1.75,0,0,1,1-1.16.65.65,0,0,1,1,.35h0a1.76,1.76,0,0,1,1-1.17c.48-.19.86,0,1,.35h0a1.76,1.76,0,0,1,1-1.16c.47-.2.86,0,1,.34h0a1.76,1.76,0,0,1,.53-.86v4.78h0a3.24,3.24,0,0,1-1.9,2.69c-1,.44-1.9,0-1.9-1.09l-.85.35c0,1.51,1.23,2.22,2.75,1.59a4.7,4.7,0,0,0,2.74-3.85h0V50.23a.56.56,0,0,1,.57.42h0a1.76,1.76,0,0,1,1-1.17c.47-.19.86,0,1,.35h0a1.8,1.8,0,0,1,1-1.16c.47-.2.86,0,1,.35h0a1.8,1.8,0,0,1,1-1.17c.46-.19.84,0,1,.33C125.88,45.34,123.06,44.23,119.52,45.56Z" fill="#575756"/>
</svg>
